PathFileType	4	(X/Y/Z)	44_1_24_p0_0-230_filt_butterworth.trc
DataRate	CameraRate	NumFrames	NumMarkers	Units	OrigDataRate	OrigDataStartFrame	OrigNumFrames
59.0	59.0	6	27	m	59.0	57	230
Frame#	Time	RHip			RKnee			RAnkle			RBigToe			RSmallToe			RHeel			LHip			LKnee			LAnkle			LBigToe			LSmallToe			LHeel			Neck			Head			Nose			RShoulder			RElbow			RWrist			RThumb			RIndex			RPinky			LShoulder			LElbow			LWrist			LThumb			LIndex			LPinky			
		X1	Y1	Z1	X2	Y2	Z2	X3	Y3	Z3	X4	Y4	Z4	X5	Y5	Z5	X6	Y6	Z6	X7	Y7	Z7	X8	Y8	Z8	X9	Y9	Z9	X10	Y10	Z10	X11	Y11	Z11	X12	Y12	Z12	X13	Y13	Z13	X14	Y14	Z14	X15	Y15	Z15	X16	Y16	Z16	X17	Y17	Z17	X18	Y18	Z18	X19	Y19	Z19	X20	Y20	Z20	X21	Y21	Z21	X22	Y22	Z22	X23	Y23	Z23	X24	Y24	Z24	X25	Y25	Z25	X26	Y26	Z26	X27	Y27	Z27	
57	0.9661016949152542	0.32904224209977284	0.9304255494804392	0.30180726557606236	0.3262898536026087	0.4874644652822276	0.49782917214970074	0.30777818428244436	0.10583432420820997	0.643309761639295	0.315674416557171	0.04554406803195001	0.5052171090874368	0.37796115258872354	0.0540072479839693	0.5113377501686871	0.2885292192802617	0.07057649343791057	0.6943147526293404	0.12473118629075423	0.9140952894685108	0.3390761441350253	0.13360035307457752	0.48586106964680276	0.5127663372076275	0.14938672833914418	0.11644395629751894	0.6253901259469982	0.13950318895363178	0.07495386419292706	0.45116973104922464	0.0916002016942969	0.06268779984100004	0.5165070212065384	0.1698698148888404	0.04870461003174988	0.6941599822613352	0.22187963107740974	1.5138995894731755	0.3166087060562396	0.22168761689542427	1.7694582405849768	0.24299778401531263	0.21992823054369293	1.626834734561479	0.2112013902505311	0.39507529895515736	1.4184560463467786	0.3485615380083059	0.4438405420538237	1.1489555926697586	0.280855253273522	0.27584627067845713	0.9798632827153726	0.17526360360070387	0.24073292013664044	0.9223837650969722	0.1622380051479621	0.21107588571257363	0.8983707184043053	0.200277893059234	0.20842008086831507	0.8938944813992014	0.19977569568234432	0.06590492547894063	1.4180874616272048	0.3420917320102895	0.019466070611573075	1.154972249892599	0.2808449377693864	0.17304747444267962	0.992050743859913	0.15541202211913963	0.2718820318754002	0.9634111204302271	0.1606721432253433	0.2797148362566343	0.9148354280543725	0.15830494313639787	0.25276668075866315	0.8944355345089205	0.17763767268235653	
58	0.9830508474576272	0.32921371379004927	0.9311556247773182	0.3005459709059916	0.3272033680880524	0.4870100373853433	0.49945600195271395	0.3077898922069326	0.10581932609319045	0.6433590398143508	0.3155044188360575	0.04614967942673187	0.505029893097843	0.3776661143314055	0.053670113791112764	0.511843994417679	0.28881807481463645	0.07017995005059302	0.6954122517665765	0.12555727284582474	0.9142556326410173	0.33913870243308064	0.13416266439470773	0.4859484358124248	0.512039399479308	0.14952916980252043	0.11558426361252604	0.6256226891499138	0.1394660229024572	0.07517106011842467	0.45046172595693484	0.09155963140006948	0.06241757545513328	0.5164680932865917	0.17002006611900547	0.048564796983977226	0.69407127140727	0.22102941426180858	1.513954174128559	0.31833394974835516	0.21929616439679508	1.7699737927604144	0.24306471015075382	0.21865280261386477	1.6270681451337934	0.20848573483971405	0.39470614037098295	1.4186354752214296	0.34473643838647605	0.44382711129203045	1.149104383548944	0.2807521857724287	0.2762803433266055	0.9798283399143639	0.17636146733066194	0.24055111131835127	0.9237067875349113	0.16240074862839873	0.21182932389489095	0.8986049994369348	0.20022147937466905	0.20847276556719424	0.8939646516965783	0.1994734494919892	0.06480205209254766	1.416962608605316	0.3419643960786172	0.019318737245512953	1.1545902900161995	0.28073025032590243	0.17355899995978288	0.9923722918437934	0.15333370253165177	0.2720775617453408	0.9635607503787214	0.16034631208458375	0.280430153572471	0.9157246386786949	0.15565816208572697	0.2530762203736772	0.8946876811811859	0.17792713861771464	
59	1.0	0.3294313022943891	0.931793242379569	0.2995348671159498	0.32817586362172046	0.4866390123304285	0.5011895966103956	0.3077998618273682	0.1058055428026409	0.6434026481021949	0.3152514718537892	0.047140066225008	0.5046361139210933	0.37719171908620885	0.05314366856196236	0.5124591104239303	0.28906412009232596	0.06982703569333222	0.6963408083915198	0.12643611164340707	0.9144534001151481	0.33941524709682114	0.13466310482227545	0.48602725679091485	0.5115740905792079	0.1496515691183117	0.1148586443228358	0.6258526005332253	0.1392964260187648	0.07502490887466957	0.45058746754477674	0.09152613578303315	0.06216674219752945	0.5164331120000953	0.17021134190287868	0.048603667033023795	0.693882976221533	0.22058010289986268	1.51393472044977	0.3193528069883375	0.2170173298576866	1.770691521346225	0.24306297138347865	0.21723140574913907	1.6270026819721874	0.20530796420648598	0.39415229044014066	1.4183743625526302	0.3416182468449517	0.44388112828412063	1.1490663666663836	0.2804621896712276	0.2771158834931854	0.9796196638883485	0.17798147985518076	0.23936651304848455	0.9251412703178856	0.16420266082588716	0.21196666903812683	0.8988054506241538	0.2011348774604821	0.20821801228051817	0.8940057926247835	0.19930378201607507	0.06385628965232579	1.4159156608763368	0.3417658753963035	0.019184127475070353	1.1544240419693466	0.2805999559768235	0.17385812202890316	0.9925425323531812	0.15213742526559287	0.2722341027358643	0.9639311893329414	0.15942706430037978	0.2811702615137315	0.9167344757841286	0.15323275304280093	0.2535356391813276	0.8945587659877633	0.17796815697808133	
60	1.0169491525423728	0.329737735970497	0.9323204773287758	0.2987870248721137	0.32908000361011974	0.4864061801212394	0.5027894163672887	0.30780958651949764	0.10579459112665221	0.6434327520187173	0.31490223377821625	0.04822257397694781	0.5038596002353273	0.3766048500666529	0.05263771690705246	0.5127347947734394	0.28926306306150307	0.0695267299051307	0.6970849214786065	0.12733104560863293	0.9146847534471241	0.3398932735204526	0.1350700596920574	0.48612005594192687	0.5114442956713516	0.14973995022234673	0.11435706358948743	0.6260758852453634	0.1388379580476063	0.07451824815577648	0.45174329044364603	0.0915388135939936	0.06214942009307839	0.5163608725153388	0.17039489646172298	0.04876288683298964	0.6936444343687616	0.22030696549436068	1.5138925105572043	0.3195868836273813	0.21485941895486574	1.771506421740272	0.24294708151789382	0.21556542501818593	1.626619115119883	0.20177020011075553	0.39336896651295006	1.4180464776478667	0.33926881035980405	0.4439462950680916	1.1491450605529643	0.2802165505086138	0.27835949406983823	0.9793451983820747	0.18016581179063407	0.23771761838216654	0.9264265509174339	0.1671120822105293	0.21154981861240005	0.8989933675101957	0.20296880522614286	0.20807902576375342	0.8939870413534886	0.1995453249568676	0.06294164721326116	1.4148561095919334	0.3412309800803086	0.01908125190927988	1.1543989211263084	0.2805078688400047	0.17404171966838317	0.9925246976660882	0.1522040546650124	0.27236064291908146	0.9643915356217123	0.15852130437591597	0.2818005538285795	0.9177380785500765	0.1513497196637835	0.25438508925541925	0.8941220497470422	0.17781988075834204	
61	1.0338983050847457	0.3301240734694946	0.9327684085415785	0.2982743036631851	0.329820600659489	0.48633022454670927	0.5040508380964546	0.3078201148986664	0.10579023375446156	0.6434420777991495	0.31443104807049793	0.04918599516156431	0.5025421214040883	0.3759415649737197	0.052429398356518386	0.5121608404040654	0.2894074251368679	0.06928797600374512	0.6976329496317956	0.12817592349820472	0.9149448774042026	0.3405400588744305	0.13535451981228214	0.4861984892492366	0.511670301148665	0.1497952125123722	0.114071189652915	0.6262848167185608	0.13806243537682925	0.07380287239668623	0.45369871800053696	0.0916235606017432	0.06251800928528517	0.5162250996516176	0.17052639901987013	0.04899780740619425	0.6934120213540803	0.219831299706601	1.5139537008509176	0.3193306937528654	0.21284524776774533	1.7723325016665965	0.24335320180297593	0.21368589936595764	1.62609540649466	0.1981818532453452	0.39229232825837734	1.4178342995056394	0.33719525394376604	0.4439153850111054	1.1495004808366114	0.2804574455587423	0.27986763800531733	0.9790792037874997	0.18271591931011566	0.23614739601948398	0.9273752551806128	0.17038674562738104	0.21079793303147032	0.8992251894981578	0.20538721723517603	0.20836451637275666	0.8938722850487002	0.20048137942974725	0.062060530742080795	1.4136470852879182	0.3401056604172445	0.01901434422353846	1.154394428521728	0.2804668319705951	0.1742888182584178	0.9923517988146953	0.1534542734954923	0.27245717469604824	0.9647809970841613	0.15800002659364593	0.2822168919119937	0.9185967135752724	0.15025919045572161	0.25562016043190505	0.8935863181617738	0.17759075729460805	
62	1.0508474576271187	0.3305593053121719	0.9331819197795335	0.29795278392140556	0.33040666452372847	0.48640850290460586	0.5049315241763283	0.30783120769668587	0.10578950668625776	0.6434397665072077	0.3138631301476986	0.04993066669791142	0.5007342810673757	0.37526702279698865	0.05258976766626307	0.5106412417614326	0.28949007257347575	0.06911999746856612	0.6979714348290935	0.12889902943261983	0.9152292549144803	0.34132828336387905	0.13551367759768201	0.4862149697921985	0.5121796878708614	0.1498281224295927	0.1139221168009198	0.6264556022882607	0.13707655406917002	0.07295921942445835	0.4561207806057624	0.0917754053667972	0.06326759740374616	0.5160338763219785	0.17059625473166287	0.04930603334697036	0.6932113497457715	0.2188927987908139	1.5142223464872862	0.31904631917419835	0.21090877150158466	1.7730502693071042	0.24507305533417822	0.21165346678937297	1.6256325181082836	0.19474126660799243	0.3909020855037899	1.4177151914339836	0.334973019959071	0.44371314794080546	1.1501087515886925	0.2814917160902828	0.2814167057580917	0.9788495897715037	0.1852497153543111	0.23505541261256024	0.9278658433829112	0.17317876682513833	0.20994633698296117	0.899511469002906	0.20796635260347762	0.20910891422298541	0.8936530677255358	0.20220530098294137	0.06129608879929618	1.4122998953383288	0.33837226833341594	0.01897140043657419	1.1543479018601124	0.2804736508880419	0.17474775367501083	0.9921134323983738	0.15536296322742804	0.2725049697032209	0.9650147145127119	0.1579090201500793	0.2823971513490684	0.9191669426949782	0.14997006881125663	0.2569901788442819	0.8931359270901876	0.17741584168581748	
